<svg width="24" height="24" viewBox="0 0 24 24" fill="none" xmlns="http://www.w3.org/2000/svg">
<path d="M14 2.2C13.3533 2.068 12.6867 2.00133 12 2C6.477 2 2 6.477 2 12C2 17.523 6.477 22 12 22C17.523 22 22 17.523 22 12C21.9987 11.3133 21.932 10.6467 21.8 10" stroke="#FBC02D" stroke-width="1.5" stroke-linecap="round" stroke-linejoin="round"/>
<path d="M12 8.99999C10.895 8.99999 10 9.67199 10 10.5C10 11.328 10.895 12 12 12C13.105 12 14 12.672 14 13.5C14 14.328 13.105 15 12 15M12 8.99999C12.87 8.99999 13.612 9.41699 13.886 9.99999M12 8.99999V7.99999M12 15C11.13 15 10.388 14.583 10.114 14M12 15V16M16.998 7.00199L21.174 2.82399M21.998 6.47999L21.88 3.38999C21.88 2.66099 21.445 2.20699 20.652 2.14999L17.528 2.00299" stroke="#FBC02D" stroke-width="1.5" stroke-linecap="round" stroke-linejoin="round"/>
</svg>
