<svg width="24" height="24" viewBox="0 0 24 24" fill="none" xmlns="http://www.w3.org/2000/svg">
<g clip-path="url(#clip0_4502_825)">
<path d="M12 23.25C18.2132 23.25 23.25 18.2132 23.25 12C23.25 5.7868 18.2132 0.75 12 0.75C5.7868 0.75 0.75 5.7868 0.75 12C0.75 18.2132 5.7868 23.25 12 23.25Z" fill="#4FD1D9"/>
<path d="M9.675 14.1001C9.75 14.5876 9.9 14.9626 10.0875 15.2251C10.4625 15.6751 11.1 15.9001 12.0375 15.9001C12.6 15.9001 13.0125 15.8251 13.3875 15.7126C14.025 15.4876 14.3625 15.0751 14.3625 14.4376C14.3625 14.0626 14.2125 13.8001 13.875 13.6126C13.575 13.4251 13.05 13.2376 12.375 13.0876L11.2125 12.8251C10.05 12.5626 9.2625 12.3001 8.8125 12.0001C8.0625 11.5126 7.725 10.7251 7.725 9.6376C7.725 8.6626 8.1 7.8376 8.8125 7.2001C9.525 6.5626 10.575 6.2251 11.9625 6.2251C13.125 6.2251 14.1 6.5251 14.925 7.1251C15.75 7.7251 16.1625 8.6251 16.2 9.7876H14.025C13.9875 9.1501 13.6875 8.6626 13.1625 8.4001C12.7875 8.2126 12.3375 8.1376 11.8125 8.1376C11.2125 8.1376 10.725 8.2501 10.3875 8.4751C10.05 8.7001 9.8625 9.0376 9.8625 9.4501C9.8625 9.8251 10.05 10.1251 10.3875 10.3126C10.6125 10.4251 11.1 10.5751 11.85 10.7626L13.7625 11.2126C14.5875 11.4001 15.225 11.6626 15.6375 12.0001C16.275 12.5251 16.6125 13.2376 16.6125 14.2126C16.6125 15.2251 16.2375 16.0501 15.45 16.6876C14.7 17.3626 13.6125 17.6626 12.1875 17.6626C10.7625 17.6626 9.6375 17.3251 8.8125 16.6876C7.9125 16.1251 7.5 15.2251 7.5 14.1001H9.675Z" fill="white"/>
</g>
<defs>
<clipPath id="clip0_4502_825">
<rect width="24" height="24" fill="white"/>
</clipPath>
</defs>
</svg>
