<svg width="64" height="64" viewBox="0 0 64 64" fill="none" xmlns="http://www.w3.org/2000/svg">
<path d="M32 62C48.5685 62 62 48.5685 62 32C62 15.4315 48.5685 2 32 2C15.4315 2 2 15.4315 2 32C2 48.5685 15.4315 62 32 62Z" fill="#4FD1D9"/>
<path d="M25.8 37.6001C26 38.9001 26.4 39.9001 26.9 40.6001C27.9 41.8001 29.6 42.4001 32.1 42.4001C33.6 42.4001 34.7 42.2001 35.7 41.9001C37.4 41.3001 38.3 40.2001 38.3 38.5001C38.3 37.5001 37.9 36.8001 37 36.3001C36.2 35.8001 34.8 35.3001 33 34.9001L29.9 34.2001C26.8 33.5001 24.7 32.8001 23.5 32.0001C21.5 30.7001 20.6 28.6001 20.6 25.7001C20.6 23.1001 21.6 20.9001 23.5 19.2001C25.4 17.5001 28.2 16.6001 31.9 16.6001C35 16.6001 37.6 17.4001 39.8 19.0001C42 20.6001 43.1 23.0001 43.2 26.1001H37.4C37.3 24.4001 36.5 23.1001 35.1 22.4001C34.1 21.9001 32.9 21.7001 31.5 21.7001C29.9 21.7001 28.6 22.0001 27.7 22.6001C26.8 23.2001 26.3 24.1001 26.3 25.2001C26.3 26.2001 26.8 27.0001 27.7 27.5001C28.3 27.8001 29.6 28.2001 31.6 28.7001L36.7 29.9001C38.9 30.4001 40.6 31.1001 41.7 32.0001C43.4 33.4001 44.3 35.3001 44.3 37.9001C44.3 40.6001 43.3 42.8001 41.2 44.5001C39.2 46.3001 36.3 47.1001 32.5 47.1001C28.7 47.1001 25.7 46.2001 23.5 44.5001C21.1 43.0001 20 40.6001 20 37.6001H25.8Z" fill="white"/>
</svg>
